%FSTAX23Y23*%
%MOIN*%
%SFA1B1*%

%IPPOS*%
%ADD17R,0.050000X0.050000*%
%ADD18C,0.050000*%
%ADD21R,0.411417X0.377952*%
%ADD22R,0.041339X0.161417*%
%ADD23C,0.050000*%
%ADD24C,0.060000*%
%ADD25C,0.040000*%
%ADD26R,0.076771X0.076771*%
%ADD27C,0.076771*%
%ADD28C,0.030000*%
%LNpcb1-1*%
%LPD*%
G54D17*
X01771Y01929D03*
X00944Y01923D03*
G54D18*
X01771Y02007D03*
X00944Y02002D03*
G54D21*
X01377Y0207D03*
G54D22*
X01277Y01679D03*
X01477D03*
G54D23*
X00944Y02131D02*
D01*
Y02002D02*
Y02131D01*
X0212Y02013D02*
Y02147D01*
X01771D02*
D01*
Y02007D02*
Y02147D01*
X0059Y01988D02*
Y02147D01*
G54D24*
X00944Y01923D02*
X01175Y01692D01*
X0059Y01791D02*
X00812D01*
X00944Y01923*
X01535Y01692D02*
X01771Y01929D01*
X01791Y01909D02*
X01889Y01811D01*
X01771Y01929D02*
X01791Y01909D01*
X01889Y01811D02*
X02125D01*
G54D25*
X01277Y01679D02*
Y01692D01*
X01277Y01692D02*
X01277Y01692D01*
X01175Y01692D02*
X01277D01*
X01477Y01692D02*
X01478Y01692D01*
X01535*
X01477Y01679D02*
Y01692D01*
G54D26*
X0212Y01816D03*
X0059Y01791D03*
G54D27*
X0212Y02013D03*
X0059Y01988D03*
G54D28*
X00944Y02131D03*
X0212Y02147D03*
X01771D03*
X0059D03*
X01496D03*
X01377Y01989D03*
X01496Y01988D03*
X01377Y02147D03*
X0124D03*
Y01988D03*
M02*