%FSTAX23Y23*%
%MOIN*%
%SFA1B1*%

%IPPOS*%
%ADD17R,0.050000X0.050000*%
%ADD18C,0.050000*%
%ADD26R,0.076771X0.076771*%
%ADD27C,0.076771*%
%ADD28C,0.030000*%
%LNpcb1-1*%
%LPD*%
G36*
X02183Y02322D02*
X02193D01*
X02212Y02318*
X0223Y02311*
X02247Y023*
X02261Y02286*
X02272Y0227*
X02276Y02259*
X02283Y02222*
Y02182*
Y01574*
X02283Y01567*
X0228Y01551*
X02274Y01537*
X02265Y01524*
X02254Y01513*
X02242Y01505*
X02241Y01504*
X02204Y01496*
X00498*
X0049*
X00475Y01499*
X0046Y01505*
X00447Y01513*
X00436Y01524*
X00428Y01537*
X00422Y01551*
X00419Y01567*
Y01574*
Y02222*
Y02232*
X00423Y02252*
X0043Y0227*
X00441Y02286*
X00455Y023*
X00471Y02311*
X0049Y02318*
X00509Y02322*
X00519*
X02183*
G37*
%LNpcb1-2*%
%LPC*%
G36*
X02126Y02062D02*
X02125D01*
Y02018*
X02168*
Y0202*
X02165Y02032*
X02158Y02043*
X02149Y02052*
X02138Y02058*
X02126Y02062*
G37*
G36*
X02115D02*
X02113D01*
X02101Y02058*
X0209Y02052*
X02081Y02043*
X02075Y02032*
X02071Y0202*
Y02018*
X02115*
Y02062*
G37*
G36*
X01776Y02042D02*
Y02012D01*
X01806*
X01804Y02021*
X01799Y02029*
X01793Y02035*
X01785Y0204*
X01776Y02042*
G37*
G36*
X01766D02*
X01758Y0204D01*
X0175Y02035*
X01743Y02029*
X01739Y02021*
X01736Y02012*
X01766*
Y02042*
G37*
G36*
X00949Y02037D02*
Y02007D01*
X00979*
X00977Y02016*
X00972Y02024*
X00966Y0203*
X00958Y02035*
X00949Y02037*
G37*
G36*
X00939D02*
X00931Y02035D01*
X00923Y0203*
X00916Y02024*
X00912Y02016*
X00909Y02007*
X00939*
Y02037*
G37*
G36*
X00596Y02036D02*
X00595D01*
Y01993*
X00638*
Y01994*
X00635Y02006*
X00629Y02017*
X0062Y02026*
X00609Y02033*
X00596Y02036*
G37*
G36*
X00585D02*
X00584D01*
X00571Y02033*
X0056Y02026*
X00551Y02017*
X00545Y02006*
X00542Y01994*
Y01993*
X00585*
Y02036*
G37*
G36*
X02168Y02008D02*
X02125D01*
Y01965*
X02126*
X02138Y01968*
X02149Y01974*
X02158Y01983*
X02165Y01994*
X02168Y02007*
Y02008*
G37*
G36*
X02115D02*
X02071D01*
Y02007*
X02075Y01994*
X02081Y01983*
X0209Y01974*
X02101Y01968*
X02113Y01965*
X02115*
Y02008*
G37*
G36*
X00638Y01983D02*
X00595D01*
Y01939*
X00596*
X00609Y01943*
X0062Y01949*
X00629Y01958*
X00635Y01969*
X00638Y01981*
Y01983*
G37*
G36*
X00585D02*
X00542D01*
Y01981*
X00545Y01969*
X00551Y01958*
X0056Y01949*
X00571Y01943*
X00584Y01939*
X00585*
Y01983*
G37*
G36*
X01806Y02002D02*
X01771D01*
X01736*
Y01973*
Y01945*
Y01894*
X01806*
Y01941*
Y0196*
Y02002*
G37*
G36*
X00979Y01997D02*
X00944D01*
X00909*
Y01968*
Y01939*
Y01888*
X00979*
Y01936*
Y01955*
Y01997*
G37*
G36*
X02168Y01865D02*
X02071D01*
Y01768*
X02168*
Y01865*
G37*
G36*
X00638Y01839D02*
X00542D01*
Y01742*
X00638*
Y01839*
G37*
%LNpcb1-3*%
%LPD*%
G54D17*
X01771Y01929D03*
X00944Y01923D03*
G54D18*
X01771Y02007D03*
X00944Y02002D03*
G54D26*
X0212Y01816D03*
X0059Y01791D03*
G54D27*
X0212Y02013D03*
X0059Y01988D03*
G54D28*
X00944Y02131D03*
X0212Y02147D03*
X01771D03*
X0059D03*
X01496D03*
X01377Y01989D03*
X01496Y01988D03*
X01377Y02147D03*
X0124D03*
Y01988D03*
M02*