%FSTAX23Y23*%
%MOIN*%
%SFA1B1*%

%IPPOS*%
%ADD10C,0.006000*%
%ADD11C,0.007874*%
%ADD12C,0.003000*%
%ADD13C,0.010000*%
%LNpcb2-1*%
%LPD*%
G54D10*
X06853Y02191D02*
D01*
D01*
G75*
G03X05977I-00438J0D01*
G74*G01*
D01*
G75*
G03X06853I00438J0D01*
G74*G01*
X03768Y03986D02*
D01*
D01*
G75*
G03X02892I-00438J0D01*
G74*G01*
D01*
G75*
G03X03768I00438J0D01*
G74*G01*
X06853Y03993D02*
D01*
D01*
G75*
G03X05977I-00438J0D01*
G74*G01*
D01*
G75*
G03X06853I00438J0D01*
G74*G01*
X04788Y03991D02*
D01*
D01*
G75*
G03X03912I-00438J0D01*
G74*G01*
D01*
G75*
G03X04788I00438J0D01*
G74*G01*
X05808Y03986D02*
D01*
D01*
G75*
G03X04932I-00438J0D01*
G74*G01*
D01*
G75*
G03X05808I00438J0D01*
G74*G01*
X04798Y02191D02*
D01*
D01*
G75*
G03X03922I-00438J0D01*
G74*G01*
D01*
G75*
G03X04798I00438J0D01*
G74*G01*
X05828Y02193D02*
D01*
D01*
G75*
G03X04952I-00438J0D01*
G74*G01*
D01*
G75*
G03X05828I00438J0D01*
G74*G01*
X03778Y02203D02*
D01*
D01*
G75*
G03X02902I-00438J0D01*
G74*G01*
D01*
G75*
G03X03778I00438J0D01*
G74*G01*
X06415Y02634D02*
Y02684D01*
X0639Y02659D02*
X0644D01*
X0333Y04429D02*
Y04479D01*
X03305Y04454D02*
X03355D01*
X0639Y04461D02*
X0644D01*
X06415Y04436D02*
Y04486D01*
X04325Y04459D02*
X04375D01*
X0435Y04434D02*
Y04484D01*
X05345Y04454D02*
X05395D01*
X0537Y04429D02*
Y04479D01*
X04335Y02659D02*
X04385D01*
X0436Y02634D02*
Y02684D01*
X05365Y02661D02*
X05415D01*
X0539Y02636D02*
Y02686D01*
X03315Y02671D02*
X03365D01*
X0334Y02646D02*
Y02696D01*
G54D11*
X01403Y03231D02*
X02584D01*
X01403Y04412D02*
X02443D01*
X01403Y03231D02*
Y04412D01*
X02584Y04271D02*
Y03231D01*
X02447Y04412D02*
X02584Y04271D01*
X01413Y01766D02*
X02594D01*
X01413Y02947D02*
X02453D01*
X01413Y01766D02*
Y02947D01*
X02594Y02806D02*
Y01766D01*
X02457Y02947D02*
X02594Y02806D01*
G54D12*
X0639Y02266D02*
X06439D01*
Y02241*
X06431Y02233*
X06414*
X06406Y02241*
Y02266*
Y0225D02*
X0639Y02233D01*
Y02191D02*
Y02208D01*
X06398Y02216*
X06414*
X06423Y02208*
Y02191*
X06414Y02183*
X06406*
Y02216*
X0639Y02158D02*
X06431D01*
X06414*
Y02166*
Y0215*
Y02158*
X06431*
X06439Y0215*
Y02125D02*
X0639D01*
Y021*
X06398Y02091*
X06431*
X06439Y021*
Y02125*
X0639Y0205D02*
Y02066D01*
X06398Y02075*
X06414*
X06423Y02066*
Y0205*
X06414Y02041*
X06406*
Y02075*
X0639Y02025D02*
Y02D01*
X06398Y01991*
X06406Y02*
Y02016*
X06414Y02025*
X06423Y02016*
Y01991*
X0639Y02279D02*
X06439D01*
Y02254*
X06431Y02246*
X06414*
X06406Y02254*
Y02279*
Y02262D02*
X0639Y02246D01*
X06439Y02196D02*
Y02229D01*
X0639*
Y02196*
X06414Y02229D02*
Y02212D01*
X06439Y02146D02*
Y02179D01*
X06414*
Y02162*
Y02179*
X0639*
X06439Y02129D02*
X0639D01*
Y02104*
X06398Y02096*
X06431*
X06439Y02104*
Y02129*
Y02046D02*
Y02079D01*
X0639*
Y02046*
X06414Y02079D02*
Y02062D01*
X06431Y01996D02*
X06439Y02004D01*
Y02021*
X06431Y02029*
X06423*
X06414Y02021*
Y02004*
X06406Y01996*
X06398*
X0639Y02004*
Y02021*
X06398Y02029*
X03305Y04061D02*
X03354D01*
Y04036*
X03346Y04028*
X03329*
X03321Y04036*
Y04061*
Y04045D02*
X03305Y04028D01*
Y03986D02*
Y04003D01*
X03313Y04011*
X03329*
X03338Y04003*
Y03986*
X03329Y03978*
X03321*
Y04011*
X03305Y03953D02*
X03346D01*
X03329*
Y03961*
Y03945*
Y03953*
X03346*
X03354Y03945*
Y0392D02*
X03305D01*
Y03895*
X03313Y03886*
X03346*
X03354Y03895*
Y0392*
X03305Y03845D02*
Y03861D01*
X03313Y0387*
X03329*
X03338Y03861*
Y03845*
X03329Y03836*
X03321*
Y0387*
X03305Y0382D02*
Y03795D01*
X03313Y03786*
X03321Y03795*
Y03811*
X03329Y0382*
X03338Y03811*
Y03786*
X03305Y04074D02*
X03354D01*
Y04049*
X03346Y04041*
X03329*
X03321Y04049*
Y04074*
Y04057D02*
X03305Y04041D01*
X03354Y03991D02*
Y04024D01*
X03305*
Y03991*
X03329Y04024D02*
Y04007D01*
X03354Y03941D02*
Y03974D01*
X03329*
Y03957*
Y03974*
X03305*
X03354Y03924D02*
X03305D01*
Y03899*
X03313Y03891*
X03346*
X03354Y03899*
Y03924*
Y03841D02*
Y03874D01*
X03305*
Y03841*
X03329Y03874D02*
Y03857D01*
X03346Y03791D02*
X03354Y03799D01*
Y03816*
X03346Y03824*
X03338*
X03329Y03816*
Y03799*
X03321Y03791*
X03313*
X03305Y03799*
Y03816*
X03313Y03824*
X0639Y0408D02*
X06439D01*
Y04055*
X06431Y04047*
X06414*
X06406Y04055*
Y0408*
Y04063D02*
X0639Y04047D01*
X06439Y03997D02*
Y0403D01*
X0639*
Y03997*
X06414Y0403D02*
Y04014D01*
X06439Y03947D02*
Y0398D01*
X06414*
Y03964*
Y0398*
X0639*
X06439Y0393D02*
X0639D01*
Y03905*
X06398Y03897*
X06431*
X06439Y03905*
Y0393*
Y03847D02*
Y0388D01*
X0639*
Y03847*
X06414Y0388D02*
Y03864D01*
X06431Y03797D02*
X06439Y03805D01*
Y03822*
X06431Y0383*
X06423*
X06414Y03822*
Y03805*
X06406Y03797*
X06398*
X0639Y03805*
Y03822*
X06398Y0383*
X0639Y04068D02*
X06439D01*
Y04043*
X06431Y04034*
X06414*
X06406Y04043*
Y04068*
Y04051D02*
X0639Y04034D01*
Y03993D02*
Y04009D01*
X06398Y04018*
X06414*
X06423Y04009*
Y03993*
X06414Y03984*
X06406*
Y04018*
X0639Y03959D02*
X06431D01*
X06414*
Y03968*
Y03951*
Y03959*
X06431*
X06439Y03951*
Y03926D02*
X0639D01*
Y03901*
X06398Y03893*
X06431*
X06439Y03901*
Y03926*
X0639Y03851D02*
Y03868D01*
X06398Y03876*
X06414*
X06423Y03868*
Y03851*
X06414Y03843*
X06406*
Y03876*
X0639Y03826D02*
Y03801D01*
X06398Y03793*
X06406Y03801*
Y03818*
X06414Y03826*
X06423Y03818*
Y03793*
X04325Y04079D02*
X04374D01*
Y04054*
X04366Y04046*
X04349*
X04341Y04054*
Y04079*
Y04062D02*
X04325Y04046D01*
X04374Y03996D02*
Y04029D01*
X04325*
Y03996*
X04349Y04029D02*
Y04012D01*
X04374Y03946D02*
Y03979D01*
X04349*
Y03962*
Y03979*
X04325*
X04374Y03929D02*
X04325D01*
Y03904*
X04333Y03896*
X04366*
X04374Y03904*
Y03929*
Y03846D02*
Y03879D01*
X04325*
Y03846*
X04349Y03879D02*
Y03862D01*
X04366Y03796D02*
X04374Y03804D01*
Y03821*
X04366Y03829*
X04358*
X04349Y03821*
Y03804*
X04341Y03796*
X04333*
X04325Y03804*
Y03821*
X04333Y03829*
X04325Y04066D02*
X04374D01*
Y04041*
X04366Y04033*
X04349*
X04341Y04041*
Y04066*
Y0405D02*
X04325Y04033D01*
Y03991D02*
Y04008D01*
X04333Y04016*
X04349*
X04358Y04008*
Y03991*
X04349Y03983*
X04341*
Y04016*
X04325Y03958D02*
X04366D01*
X04349*
Y03966*
Y0395*
Y03958*
X04366*
X04374Y0395*
Y03925D02*
X04325D01*
Y039*
X04333Y03891*
X04366*
X04374Y039*
Y03925*
X04325Y0385D02*
Y03866D01*
X04333Y03875*
X04349*
X04358Y03866*
Y0385*
X04349Y03841*
X04341*
Y03875*
X04325Y03825D02*
Y038D01*
X04333Y03791*
X04341Y038*
Y03816*
X04349Y03825*
X04358Y03816*
Y03791*
X05345Y04074D02*
X05394D01*
Y04049*
X05386Y04041*
X05369*
X05361Y04049*
Y04074*
Y04057D02*
X05345Y04041D01*
X05394Y03991D02*
Y04024D01*
X05345*
Y03991*
X05369Y04024D02*
Y04007D01*
X05394Y03941D02*
Y03974D01*
X05369*
Y03957*
Y03974*
X05345*
X05394Y03924D02*
X05345D01*
Y03899*
X05353Y03891*
X05386*
X05394Y03899*
Y03924*
Y03841D02*
Y03874D01*
X05345*
Y03841*
X05369Y03874D02*
Y03857D01*
X05386Y03791D02*
X05394Y03799D01*
Y03816*
X05386Y03824*
X05378*
X05369Y03816*
Y03799*
X05361Y03791*
X05353*
X05345Y03799*
Y03816*
X05353Y03824*
X05345Y04061D02*
X05394D01*
Y04036*
X05386Y04028*
X05369*
X05361Y04036*
Y04061*
Y04045D02*
X05345Y04028D01*
Y03986D02*
Y04003D01*
X05353Y04011*
X05369*
X05378Y04003*
Y03986*
X05369Y03978*
X05361*
Y04011*
X05345Y03953D02*
X05386D01*
X05369*
Y03961*
Y03945*
Y03953*
X05386*
X05394Y03945*
Y0392D02*
X05345D01*
Y03895*
X05353Y03886*
X05386*
X05394Y03895*
Y0392*
X05345Y03845D02*
Y03861D01*
X05353Y0387*
X05369*
X05378Y03861*
Y03845*
X05369Y03836*
X05361*
Y0387*
X05345Y0382D02*
Y03795D01*
X05353Y03786*
X05361Y03795*
Y03811*
X05369Y0382*
X05378Y03811*
Y03786*
X04335Y02279D02*
X04384D01*
Y02254*
X04376Y02246*
X04359*
X04351Y02254*
Y02279*
Y02262D02*
X04335Y02246D01*
X04384Y02196D02*
Y02229D01*
X04335*
Y02196*
X04359Y02229D02*
Y02212D01*
X04384Y02146D02*
Y02179D01*
X04359*
Y02162*
Y02179*
X04335*
X04384Y02129D02*
X04335D01*
Y02104*
X04343Y02096*
X04376*
X04384Y02104*
Y02129*
Y02046D02*
Y02079D01*
X04335*
Y02046*
X04359Y02079D02*
Y02062D01*
X04376Y01996D02*
X04384Y02004D01*
Y02021*
X04376Y02029*
X04368*
X04359Y02021*
Y02004*
X04351Y01996*
X04343*
X04335Y02004*
Y02021*
X04343Y02029*
X04335Y02266D02*
X04384D01*
Y02241*
X04376Y02233*
X04359*
X04351Y02241*
Y02266*
Y0225D02*
X04335Y02233D01*
Y02191D02*
Y02208D01*
X04343Y02216*
X04359*
X04368Y02208*
Y02191*
X04359Y02183*
X04351*
Y02216*
X04335Y02158D02*
X04376D01*
X04359*
Y02166*
Y0215*
Y02158*
X04376*
X04384Y0215*
Y02125D02*
X04335D01*
Y021*
X04343Y02091*
X04376*
X04384Y021*
Y02125*
X04335Y0205D02*
Y02066D01*
X04343Y02075*
X04359*
X04368Y02066*
Y0205*
X04359Y02041*
X04351*
Y02075*
X04335Y02025D02*
Y02D01*
X04343Y01991*
X04351Y02*
Y02016*
X04359Y02025*
X04368Y02016*
Y01991*
X05365Y0228D02*
X05414D01*
Y02255*
X05406Y02247*
X05389*
X05381Y02255*
Y0228*
Y02263D02*
X05365Y02247D01*
X05414Y02197D02*
Y0223D01*
X05365*
Y02197*
X05389Y0223D02*
Y02214D01*
X05414Y02147D02*
Y0218D01*
X05389*
Y02164*
Y0218*
X05365*
X05414Y0213D02*
X05365D01*
Y02105*
X05373Y02097*
X05406*
X05414Y02105*
Y0213*
Y02047D02*
Y0208D01*
X05365*
Y02047*
X05389Y0208D02*
Y02064D01*
X05406Y01997D02*
X05414Y02005D01*
Y02022*
X05406Y0203*
X05398*
X05389Y02022*
Y02005*
X05381Y01997*
X05373*
X05365Y02005*
Y02022*
X05373Y0203*
X05365Y02268D02*
X05414D01*
Y02243*
X05406Y02234*
X05389*
X05381Y02243*
Y02268*
Y02251D02*
X05365Y02234D01*
Y02193D02*
Y02209D01*
X05373Y02218*
X05389*
X05398Y02209*
Y02193*
X05389Y02184*
X05381*
Y02218*
X05365Y02159D02*
X05406D01*
X05389*
Y02168*
Y02151*
Y02159*
X05406*
X05414Y02151*
Y02126D02*
X05365D01*
Y02101*
X05373Y02093*
X05406*
X05414Y02101*
Y02126*
X05365Y02051D02*
Y02068D01*
X05373Y02076*
X05389*
X05398Y02068*
Y02051*
X05389Y02043*
X05381*
Y02076*
X05365Y02026D02*
Y02001D01*
X05373Y01993*
X05381Y02001*
Y02018*
X05389Y02026*
X05398Y02018*
Y01993*
X03315Y0229D02*
X03364D01*
Y02265*
X03356Y02257*
X03339*
X03331Y02265*
Y0229*
Y02273D02*
X03315Y02257D01*
X03364Y02207D02*
Y0224D01*
X03315*
Y02207*
X03339Y0224D02*
Y02224D01*
X03364Y02157D02*
Y0219D01*
X03339*
Y02174*
Y0219*
X03315*
X03364Y0214D02*
X03315D01*
Y02115*
X03323Y02107*
X03356*
X03364Y02115*
Y0214*
Y02057D02*
Y0209D01*
X03315*
Y02057*
X03339Y0209D02*
Y02074D01*
X03356Y02007D02*
X03364Y02015D01*
Y02032*
X03356Y0204*
X03348*
X03339Y02032*
Y02015*
X03331Y02007*
X03323*
X03315Y02015*
Y02032*
X03323Y0204*
X03315Y02278D02*
X03364D01*
Y02253*
X03356Y02244*
X03339*
X03331Y02253*
Y02278*
Y02261D02*
X03315Y02244D01*
Y02203D02*
Y02219D01*
X03323Y02228*
X03339*
X03348Y02219*
Y02203*
X03339Y02194*
X03331*
Y02228*
X03315Y02169D02*
X03356D01*
X03339*
Y02178*
Y02161*
Y02169*
X03356*
X03364Y02161*
Y02136D02*
X03315D01*
Y02111*
X03323Y02103*
X03356*
X03364Y02111*
Y02136*
X03315Y02061D02*
Y02078D01*
X03323Y02086*
X03339*
X03348Y02078*
Y02061*
X03339Y02053*
X03331*
Y02086*
X03315Y02036D02*
Y02011D01*
X03323Y02003*
X03331Y02011*
Y02028*
X03339Y02036*
X03348Y02028*
Y02003*
G54D13*
X01414Y03046D02*
Y02987D01*
X01443*
X01453Y02996*
Y03036*
X01443Y03046*
X01414*
X01513Y02987D02*
X01473D01*
X01513Y03026*
Y03036*
X01503Y03046*
X01483*
X01473Y03036*
X01404Y04511D02*
Y04452D01*
X01433*
X01443Y04461*
Y04501*
X01433Y04511*
X01404*
X01463Y04452D02*
X01483D01*
X01473*
Y04511*
X01463Y04501*
X06021Y02767D02*
X06011Y02777D01*
X05991*
X05982Y02767*
Y02727*
X05991Y02718*
X06011*
X06021Y02727*
X06041Y02767D02*
X06051Y02777D01*
X06071*
X06081Y02767*
Y02757*
X06071Y02747*
X06081Y02737*
Y02727*
X06071Y02718*
X06051*
X06041Y02727*
Y02737*
X06051Y02747*
X06041Y02757*
Y02767*
X06051Y02747D02*
X06071D01*
X04995Y02768D02*
X04985Y02778D01*
X04965*
X04956Y02768*
Y02728*
X04965Y02719*
X04985*
X04995Y02728*
X05015Y02778D02*
X05055D01*
Y02768*
X05015Y02728*
Y02719*
X03965Y02767D02*
X03955Y02777D01*
X03935*
X03926Y02767*
Y02727*
X03935Y02718*
X03955*
X03965Y02727*
X04025Y02777D02*
X04005Y02767D01*
X03985Y02747*
Y02727*
X03995Y02718*
X04015*
X04025Y02727*
Y02737*
X04015Y02747*
X03985*
X02945Y02778D02*
X02935Y02788D01*
X02915*
X02906Y02778*
Y02738*
X02915Y02729*
X02935*
X02945Y02738*
X03005Y02788D02*
X02965D01*
Y02758*
X02985Y02768*
X02995*
X03005Y02758*
Y02738*
X02995Y02729*
X02975*
X02965Y02738*
X06021Y04568D02*
X06011Y04578D01*
X05991*
X05982Y04568*
Y04528*
X05991Y04519*
X06011*
X06021Y04528*
X06071Y04519D02*
Y04578D01*
X06041Y04548*
X06081*
X04975Y04562D02*
X04965Y04572D01*
X04945*
X04936Y04562*
Y04522*
X04945Y04513*
X04965*
X04975Y04522*
X04995Y04562D02*
X05005Y04572D01*
X05025*
X05035Y04562*
Y04552*
X05025Y04542*
X05015*
X05025*
X05035Y04532*
Y04522*
X05025Y04513*
X05005*
X04995Y04522*
X03955Y04567D02*
X03945Y04577D01*
X03925*
X03916Y04567*
Y04527*
X03925Y04518*
X03945*
X03955Y04527*
X04015Y04518D02*
X03975D01*
X04015Y04557*
Y04567*
X04005Y04577*
X03985*
X03975Y04567*
X02935Y04562D02*
X02925Y04572D01*
X02905*
X02896Y04562*
Y04522*
X02905Y04513*
X02925*
X02935Y04522*
X02955Y04513D02*
X02975D01*
X02965*
Y04572*
X02955Y04562*
M02*