%FSTAX23Y23*%
%MOIN*%
%SFA1B1*%

%IPPOS*%
%AMD15*
4,1,8,0.059100,-0.172200,0.059100,0.172200,0.044300,0.187000,-0.044300,0.187000,-0.059100,0.172200,-0.059100,-0.172200,-0.044300,-0.187000,0.044300,-0.187000,0.059100,-0.172200,0.0*
1,1,0.029528,0.044300,-0.172200*
1,1,0.029528,0.044300,0.172200*
1,1,0.029528,-0.044300,0.172200*
1,1,0.029528,-0.044300,-0.172200*
%
%AMD16*
4,1,8,0.059100,-0.172800,0.059100,0.172800,0.044900,0.187000,-0.044900,0.187000,-0.059100,0.172800,-0.059100,-0.172800,-0.044900,-0.187000,0.044900,-0.187000,0.059100,-0.172800,0.0*
1,1,0.028346,0.044900,-0.172800*
1,1,0.028346,0.044900,0.172800*
1,1,0.028346,-0.044900,0.172800*
1,1,0.028346,-0.044900,-0.172800*
%
%ADD14C,0.103000*%
G04~CAMADD=15~8~0.0~0.0~3740.2~1181.1~147.6~0.0~15~0.0~0.0~0.0~0.0~0~0.0~0.0~0.0~0.0~0~0.0~0.0~0.0~270.0~1182.0~3741.0*
%ADD15D15*%
G04~CAMADD=16~8~0.0~0.0~3740.2~1181.1~141.7~0.0~15~0.0~0.0~0.0~0.0~0~0.0~0.0~0.0~0.0~0~0.0~0.0~0.0~270.0~1182.0~3741.0*
%ADD16D16*%
%ADD17R,0.374015X0.118110*%
%ADD18C,0.349999*%
%ADD19C,0.040000*%
%ADD20C,0.349999*%
%LNpcb2-1*%
%LPD*%
G54D14*
X06415Y02388D03*
Y01995D03*
X0333Y04183D03*
Y0379D03*
X06415Y03796D03*
Y0419D03*
X0435Y03795D03*
Y04188D03*
X0537Y0379D03*
Y04183D03*
X0436Y01995D03*
Y02388D03*
X0539Y01996D03*
Y0239D03*
X0334Y02006D03*
Y024D03*
G54D15*
X0164Y04105D03*
Y03535D03*
X0165Y0264D03*
Y0207D03*
G54D16*
X02348Y03535D03*
X02358Y0207D03*
G54D17*
X02297Y04192D03*
X02307Y02727D03*
G54D18*
X0671Y046D03*
X06785Y0311D03*
X01225Y0163D03*
X0121Y03425D03*
X0672Y01465D03*
G54D19*
X06415Y02388D02*
D01*
D01*
G75*
G03X06403Y024I-00011J0D01*
G74*G01*
X0333Y04183D02*
D01*
D01*
G75*
G03X03321Y04192I-00008J0D01*
G74*G01*
X04345Y04183D02*
D01*
D01*
G75*
G03X0435Y04188I0J00005D01*
G74*G01*
X06408Y0379D02*
D01*
D01*
G75*
G03X06415Y03796I0J00006D01*
G74*G01*
Y01995D02*
X06425Y01985D01*
G54D20*
X06415Y04305D02*
X0671Y046D01*
X0537Y04188D02*
X06413D01*
X06415Y0419D02*
Y04305D01*
X0435Y04188D02*
X0537D01*
X06425Y0176D02*
X0672Y01465D01*
X0334Y02006D02*
X0436D01*
X0539*
X06425Y0176D02*
Y01985D01*
X0539Y02006D02*
X06403D01*
X01855Y01565D02*
X03134D01*
X0165Y0177D02*
X01855Y01565D01*
X0334Y0177D02*
Y02006D01*
X03134Y01565D02*
X0334Y0177D01*
X0333Y04183D02*
X04345D01*
X0334Y02006D02*
D01*
X03339Y02425D02*
X0334D01*
X0165Y0177D02*
Y0207D01*
X0164Y03355D02*
Y03535D01*
X03037Y02727D02*
X03339Y02425D01*
X02297Y04192D02*
X03321D01*
X0164Y03355D02*
X02267Y02727D01*
X02307*
X03037*
M02*